<?xml version="1.0" standalone="no"?>
<!DOCTYPE svg PUBLIC "-//W3C//DTD SVG 20010904//EN"
 "http://www.w3.org/TR/2001/REC-SVG-20010904/DTD/svg10.dtd">
<svg version="1.0" xmlns="http://www.w3.org/2000/svg"
 width="601.000000pt" height="400.000000pt" viewBox="0 0 601.000000 400.000000"
 preserveAspectRatio="xMidYMid meet">
<metadata>
Created by potrace 1.16, written by Peter Selinger 2001-2019
</metadata>
<g transform="translate(0.000000,400.000000) scale(0.100000,-0.100000)"
fill="#000000" stroke="none">
<path d="M0 2000 l0 -2000 3005 0 3005 0 0 2000 0 2000 -3005 0 -3005 0 0
-2000z m2014 624 c14 -5 16 -34 16 -214 l0 -209 41 -3 c45 -3 67 -24 56 -52
-6 -15 -24 -16 -154 -14 l-148 3 0 30 c0 29 1 30 53 33 l52 3 -2 177 -3 177
-45 5 c-33 4 -46 10 -48 23 -8 41 4 47 87 47 44 0 86 -3 95 -6z m1204 -211 l2
-212 48 -3 c45 -3 47 -4 47 -33 l0 -30 -148 -3 c-130 -2 -148 -1 -154 14 -11
30 11 49 61 52 l46 3 -2 177 -3 177 -45 5 c-33 4 -46 10 -48 23 -8 43 3 48
100 45 l93 -3 3 -212z m-1903 177 c23 -9 26 -15 23 -47 -2 -28 -7 -37 -18 -34
-49 11 -128 11 -150 -1 -44 -23 -62 -73 -57 -158 4 -85 18 -113 66 -136 28
-14 43 -14 88 -5 65 13 73 9 73 -28 0 -45 -23 -56 -120 -56 -76 0 -91 3 -123
25 -20 13 -46 43 -59 65 -20 35 -23 54 -23 140 0 75 5 108 17 131 25 47 75 92
111 103 44 13 140 13 172 1z m2643 -48 l3 -51 62 -3 c62 -3 62 -3 65 -35 l3
-32 -63 -3 -63 -3 -3 -102 c-3 -96 -1 -103 19 -114 13 -7 40 -9 65 -5 l44 6 0
-34 c0 -39 -16 -46 -90 -45 -113 2 -133 29 -140 182 l-5 112 -43 3 c-42 3 -43
4 -40 35 3 30 6 32 46 35 42 3 42 4 42 41 0 42 12 57 50 64 41 7 45 3 48 -51z
m-2289 -68 c45 -26 51 -52 51 -204 l0 -140 -35 0 c-22 0 -37 6 -44 17 -9 17
-11 16 -30 -1 -13 -12 -41 -21 -74 -24 -63 -5 -101 19 -118 77 -25 83 47 151
159 151 49 0 52 2 52 25 0 39 -40 59 -98 50 -82 -13 -87 -12 -90 14 -2 13 1
28 7 34 30 30 170 31 220 1z m829 4 c7 -6 12 -25 10 -42 -2 -25 -7 -30 -23
-28 -11 2 -44 4 -73 5 -70 2 -94 -21 -100 -97 -4 -51 -2 -57 27 -87 30 -30 35
-31 99 -28 65 4 67 3 70 -21 4 -47 -10 -55 -101 -55 -72 0 -88 3 -119 25 -54
36 -72 74 -72 150 0 103 47 168 138 191 38 10 126 2 144 -13z m1107 12 c24 -5
51 -21 68 -40 27 -30 27 -31 27 -175 l0 -145 -35 0 c-22 0 -37 6 -44 17 -9 17
-11 16 -30 -1 -13 -12 -41 -21 -74 -24 -63 -5 -101 19 -118 77 -25 83 47 151
159 151 48 0 52 2 52 23 0 41 -32 61 -87 53 -100 -12 -98 -13 -101 13 -5 30 8
42 55 51 54 11 82 11 128 0z m848 -22 c91 -65 89 -253 -5 -319 -42 -30 -141
-37 -188 -12 -69 36 -100 124 -79 222 20 94 96 147 194 135 28 -4 62 -15 78
-26z m393 17 c39 -16 67 -68 62 -114 -3 -22 -8 -26 -37 -26 -22 0 -37 6 -42
18 -5 9 -13 25 -18 35 -14 30 -49 26 -81 -8 -30 -32 -30 -34 -30 -146 l0 -114
-45 0 -45 0 2 178 3 177 33 3 c22 2 34 -2 38 -12 8 -20 28 -21 44 -2 10 13 31
21 68 25 7 0 28 -6 48 -14z m-2148 -129 c1 -75 7 -135 14 -143 16 -20 54 -15
85 11 27 23 28 28 33 143 l5 118 40 0 40 0 0 -175 0 -175 -37 -3 c-33 -3 -38
0 -38 17 0 27 -8 26 -38 -1 -18 -18 -35 -23 -77 -23 -95 0 -115 40 -115 226 0
127 6 142 55 137 l30 -3 3 -129z m-72 -637 c4 -6 10 -25 14 -43 5 -17 27 -94
50 -171 38 -127 50 -171 61 -215 3 -11 -7 -16 -42 -18 l-47 -3 -14 43 -15 43
-67 3 c-77 3 -103 -10 -108 -57 -3 -24 -7 -26 -48 -26 -35 0 -44 3 -41 15 11
44 22 84 49 175 17 55 40 132 51 170 12 39 23 76 26 83 6 15 121 17 131 1z
m460 -125 c70 -78 56 -246 -26 -304 -22 -15 -51 -24 -95 -28 l-64 -5 -3 -61
-3 -61 -43 -3 -42 -3 2 248 3 248 28 3 c19 2 33 -3 42 -14 12 -17 14 -17 37
-2 58 38 120 32 164 -18z m400 0 c35 -38 44 -70 44 -148 0 -110 -74 -186 -182
-186 l-47 0 -3 -62 -3 -63 -43 -3 -42 -3 2 248 3 248 28 3 c19 2 33 -3 42 -14
12 -17 14 -17 37 -2 58 38 120 32 164 -18z"/>
<path d="M4312 2410 c-28 -12 -42 -48 -42 -111 0 -40 5 -55 25 -74 30 -30 77
-33 104 -6 36 36 39 131 7 173 -16 22 -63 31 -94 18z"/>
<path d="M2930 1534 c-31 -26 -31 -27 -28 -113 l3 -86 33 -3 c37 -4 65 15 88
60 35 67 1 168 -56 168 -5 0 -22 -12 -40 -26z"/>
<path d="M3331 1534 c-32 -26 -32 -27 -29 -113 l3 -86 33 -3 c75 -7 127 100
90 185 -7 15 -12 29 -13 30 0 1 -12 4 -26 8 -20 5 -34 0 -58 -21z"/>
</g>
</svg>
